{
  "accessors": [
    {
      "bufferView": 2,
      "componentType": 5126,
      "count": 113,
      "max": [
        1.5521469116210938,
        -1.4521254301071167,
        2.0250768661499023
      ],
      "min": [
        -1.5521438121795654,
        -1.5956236124038696,
        -0.3026745319366455
      ],
      "type": "VEC3"
    },
    {
      "bufferView": 2,
      "byteOffset": 1356,
      "componentType": 5126,
      "count": 113,
      "max": [
        0.28008222579956055,
        -0.9590827822685242,
        0.17882095277309418
      ],
      "min": [
        -0.28008222579956055,
        -1.0,
        -0.17882077395915985
      ],
      "type": "VEC3"
    },
    {
      "bufferView": 1,
      "componentType": 5126,
      "count": 113,
      "max": [
        0.9094136357307434,
        0.8163257837295532
      ],
      "min": [
        0.7519370317459106,
        0.6058997511863708
      ],
      "type": "VEC2"
    },
    {
      "bufferView": 1,
      "byteOffset": 904,
      "componentType": 5126,
      "count": 113,
      "max": [
        0.9094136357307434,
        0.8163257837295532
      ],
      "min": [
        0.7519370317459106,
        0.6058997511863708
      ],
      "type": "VEC2"
    },
    {
      "bufferView": 0,
      "componentType": 5125,
      "count": 576,
      "type": "SCALAR"
    },
    {
      "bufferView": 2,
      "byteOffset": 2712,
      "componentType": 5126,
      "count": 2239,
      "max": [
        2.029315710067749,
        2.6053390502929688,
        2.503220796585083
      ],
      "min": [
        -2.0293128490448,
        -1.5889183282852173,
        -1.8265650272369385
      ],
      "type": "VEC3"
    },
    {
      "bufferView": 2,
      "byteOffset": 29580,
      "componentType": 5126,
      "count": 2239,
      "max": [
        1.0,
        1.0,
        1.0
      ],
      "min": [
        -1.0,
        -1.0,
        -1.0
      ],
      "type": "VEC3"
    },
    {
      "bufferView": 3,
      "componentType": 5126,
      "count": 2239,
      "max": [
        1.0,
        0.9999994039535522,
        0.9999969005584717,
        1.0
      ],
      "min": [
        -1.0,
        -1.0,
        -1.0,
        1.0
      ],
      "type": "VEC4"
    },
    {
      "bufferView": 1,
      "byteOffset": 1808,
      "componentType": 5126,
      "count": 2239,
      "max": [
        0.9992457032203674,
        0.9597969651222229
      ],
      "min": [
        0.0007543509709648788,
        0.0007543509709648788
      ],
      "type": "VEC2"
    },
    {
      "bufferView": 1,
      "byteOffset": 19720,
      "componentType": 5126,
      "count": 2239,
      "max": [
        0.9992457032203674,
        0.9597969651222229
      ],
      "min": [
        0.0007543509709648788,
        0.0007543509709648788
      ],
      "type": "VEC2"
    },
    {
      "bufferView": 0,
      "byteOffset": 2304,
      "componentType": 5125,
      "count": 10650,
      "type": "SCALAR"
    }
  ],
  "asset": {
    "extras": {
      "author": "Dan (https://sketchfab.com/fizyman)",
      "license": "CC-BY-4.0 (http://creativecommons.org/licenses/by/4.0/)",
      "source": "https://sketchfab.com/3d-models/crt-computer-monitor-f2ff0013f86e4cd0a2aee183a23bdfee",
      "title": "CRT Computer Monitor"
    },
    "generator": "Sketchfab-12.97.0",
    "version": "2.0"
  },
  "bufferViews": [
    {
      "buffer": 0,
      "byteLength": 44904,
      "name": "floatBufferViews",
      "target": 34963
    },
    {
      "buffer": 0,
      "byteLength": 37632,
      "byteOffset": 44904,
      "byteStride": 8,
      "name": "floatBufferViews",
      "target": 34962
    },
    {
      "buffer": 0,
      "byteLength": 56448,
      "byteOffset": 82536,
      "byteStride": 12,
      "name": "floatBufferViews",
      "target": 34962
    },
    {
      "buffer": 0,
      "byteLength": 35824,
      "byteOffset": 138984,
      "byteStride": 16,
      "name": "floatBufferViews",
      "target": 34962
    }
  ],
  "buffers": [
    {
      "byteLength": 174808,
      "uri": "scene.bin"
    }
  ],
  "images": [
    {
      "uri": "textures/monitor_glass_baseColor.png"
    },
    {
      "uri": "textures/monitor_glass_metallicRoughness.png"
    },
    {
      "uri": "textures/monitor_plastic_baseColor.png"
    },
    {
      "uri": "textures/monitor_plastic_metallicRoughness.png"
    },
    {
      "uri": "textures/monitor_plastic_normal.png"
    }
  ],
  "materials": [
    {
      "doubleSided": true,
      "name": "monitor_glass",
      "occlusionTexture": {
        "index": 1
      },
      "pbrMetallicRoughness": {
        "baseColorTexture": {
          "index": 0
        },
        "metallicFactor": 0.0,
        "metallicRoughnessTexture": {
          "index": 1
        }
      }
    },
    {
      "doubleSided": true,
      "name": "monitor_plastic",
      "normalTexture": {
        "index": 4
      },
      "occlusionTexture": {
        "index": 3
      },
      "pbrMetallicRoughness": {
        "baseColorTexture": {
          "index": 2
        },
        "metallicRoughnessTexture": {
          "index": 3
        }
      }
    }
  ],
  "meshes": [
    {
      "name": "CRT_Monitor_monitor_glass_0",
      "primitives": [
        {
          "attributes": {
            "NORMAL": 1,
            "POSITION": 0,
            "TEXCOORD_0": 2,
            "TEXCOORD_1": 3
          },
          "indices": 4,
          "material": 0,
          "mode": 4
        }
      ]
    },
    {
      "name": "CRT_Monitor_monitor_plastic_0",
      "primitives": [
        {
          "attributes": {
            "NORMAL": 6,
            "POSITION": 5,
            "TANGENT": 7,
            "TEXCOORD_0": 8,
            "TEXCOORD_1": 9
          },
          "indices": 10,
          "material": 1,
          "mode": 4
        }
      ]
    }
  ],
  "nodes": [
    {
      "children": [
        1
      ],
      "matrix": [
        1.0,
        0.0,
        0.0,
        0.0,
        0.0,
        2.220446049250313e-16,
        -1.0,
        0.0,
        0.0,
        1.0,
        2.220446049250313e-16,
        0.0,
        0.0,
        0.0,
        0.0,
        1.0
      ],
      "name": "Sketchfab_model"
    },
    {
      "children": [
        2
      ],
      "matrix": [
        0.009999999776482582,
        0.0,
        0.0,
        0.0,
        0.0,
        0.0,
        0.009999999776482582,
        0.0,
        0.0,
        -0.009999999776482582,
        0.0,
        0.0,
        0.0,
        0.0,
        0.0,
        1.0
      ],
      "name": "f9ff2bc37b4c43288ad85f73e5d85987.fbx"
    },
    {
      "children": [
        3
      ],
      "name": "RootNode"
    },
    {
      "children": [
        4,
        5
      ],
      "matrix": [
        10.0,
        0.0,
        0.0,
        0.0,
        -0.0,
        -1.6292067939183141e-06,
        -9.999999999999869,
        0.0,
        0.0,
        9.999999999999869,
        -1.6292067939183141e-06,
        0.0,
        -1.5133981833059806e-05,
        -7.126983642578125,
        5.521695137023926,
        1.0
      ],
      "name": "CRT_Monitor"
    },
    {
      "mesh": 0,
      "name": "CRT_Monitor_monitor_glass_0"
    },
    {
      "mesh": 1,
      "name": "CRT_Monitor_monitor_plastic_0"
    }
  ],
  "samplers": [
    {
      "magFilter": 9729,
      "minFilter": 9987,
      "wrapS": 10497,
      "wrapT": 10497
    }
  ],
  "scene": 0,
  "scenes": [
    {
      "name": "Sketchfab_Scene",
      "nodes": [
        0
      ]
    }
  ],
  "textures": [
    {
      "sampler": 0,
      "source": 0
    },
    {
      "sampler": 0,
      "source": 1
    },
    {
      "sampler": 0,
      "source": 2
    },
    {
      "sampler": 0,
      "source": 3
    },
    {
      "sampler": 0,
      "source": 4
    }
  ]
}
